<svg width="20.383972" height="16.573486" viewBox="0 0 20.384 16.5735" fill="none" xmlns="http://www.w3.org/2000/svg" xmlns:xlink="http://www.w3.org/1999/xlink">
	<desc>
			Created with Pixso.
	</desc>
	<defs/>
	<path id="Vector" d="M20.383 1.96753C19.6196 2.30518 18.8099 2.52686 17.981 2.62549C18.8547 2.10278 19.5087 1.28052 19.821 0.311523C19.001 0.799561 18.102 1.14136 17.165 1.32642C16.5356 0.653076 15.7014 0.206299 14.7919 0.0561523C13.8826 -0.0942383 12.9489 0.0600586 12.1363 0.494873C11.3236 0.929932 10.6774 1.62109 10.2981 2.46118C9.91882 3.30127 9.82776 4.24316 10.039 5.14038C8.3761 5.05713 6.74933 4.625 5.26428 3.87207C3.77924 3.11914 2.46912 2.0625 1.41901 0.770508C1.0473 1.40894 0.851929 2.13477 0.853027 2.87354C0.853027 4.32349 1.591 5.60449 2.71301 6.35449C2.04901 6.3335 1.39966 6.1543 0.81897 5.83154L0.81897 5.88354C0.819214 6.84912 1.15338 7.78516 1.76483 8.53247C2.37634 9.28003 3.22748 9.79297 4.17401 9.98438C3.55762 10.1514 2.91132 10.176 2.284 10.0564C2.55084 10.8877 3.07098 11.6147 3.77161 12.1355C4.47217 12.6565 5.31812 12.9453 6.19098 12.9614C5.32349 13.6428 4.3302 14.1465 3.26788 14.4436C2.20557 14.7407 1.09515 14.8257 0 14.6934C1.91168 15.9229 4.13708 16.5757 6.40997 16.5735C14.103 16.5735 18.31 10.2004 18.31 4.67334C18.31 4.49341 18.305 4.31152 18.297 4.13354C19.1158 3.5415 19.8226 2.80835 20.384 1.96851L20.383 1.96753Z" fill="#899D9D" fill-opacity="1.000000" fill-rule="nonzero"/>
</svg>
