<svg width="20.000000" height="20.000000" viewBox="0 0 20 20" fill="none" xmlns="http://www.w3.org/2000/svg" xmlns:xlink="http://www.w3.org/1999/xlink">
	<desc>
			Created with Pixso.
	</desc>
	<defs/>
	<path id="Vector" d="M10 0C12.717 0 13.056 0.0100098 14.122 0.0600586C15.187 0.110107 15.912 0.2771 16.55 0.524902C17.21 0.779053 17.766 1.12305 18.322 1.67798C18.8305 2.17798 19.2239 2.78247 19.475 3.44995C19.722 4.08691 19.89 4.81299 19.94 5.87793C19.987 6.94409 20 7.28296 20 10C20 12.717 19.99 13.0559 19.94 14.1221C19.89 15.187 19.722 15.9121 19.475 16.55C19.2247 17.2178 18.8311 17.8225 18.322 18.322C17.822 18.8303 17.2173 19.2236 16.55 19.4751C15.913 19.7219 15.187 19.8899 14.122 19.9399C13.056 19.9871 12.717 20 10 20C7.28302 20 6.94397 19.99 5.87799 19.9399C4.81299 19.8899 4.08801 19.7219 3.45001 19.4751C2.78235 19.2244 2.17755 18.8311 1.67798 18.322C1.16943 17.8223 0.77594 17.2175 0.525024 16.55C0.276978 15.9131 0.109985 15.187 0.0599976 14.1221C0.0130005 13.0559 0 12.717 0 10C0 7.28296 0.0100098 6.94409 0.0599976 5.87793C0.109985 4.81201 0.276978 4.08789 0.525024 3.44995C0.775208 2.78223 1.16882 2.17725 1.67798 1.67798C2.17767 1.16919 2.78241 0.775635 3.45001 0.524902C4.08801 0.2771 4.81201 0.110107 5.87799 0.0600586C6.94397 0.0129395 7.28302 0 10 0ZM10 5C8.67389 5 7.40216 5.52686 6.46448 6.46436C5.52679 7.4021 5 8.67383 5 10C5 11.3262 5.52679 12.5979 6.46448 13.5356C7.40216 14.4731 8.67389 15 10 15C11.3261 15 12.5978 14.4731 13.5355 13.5356C14.4732 12.5979 15 11.3262 15 10C15 8.67383 14.4732 7.4021 13.5355 6.46436C12.5978 5.52686 11.3261 5 10 5ZM16.5 4.75C16.5 4.41846 16.3683 4.10059 16.1339 3.86621C15.8995 3.63159 15.5815 3.5 15.25 3.5C14.9185 3.5 14.6005 3.63159 14.3661 3.86621C14.1317 4.10059 14 4.41846 14 4.75C14 5.08154 14.1317 5.39941 14.3661 5.63379C14.6005 5.86841 14.9185 6 15.25 6C15.5815 6 15.8995 5.86841 16.1339 5.63379C16.3683 5.39941 16.5 5.08154 16.5 4.75ZM10 7C10.7957 7 11.5587 7.31616 12.1213 7.87866C12.684 8.44141 13 9.20435 13 10C13 10.7957 12.684 11.5586 12.1213 12.1213C11.5587 12.6838 10.7957 13 10 13C9.20435 13 8.44128 12.6838 7.87866 12.1213C7.31604 11.5586 7 10.7957 7 10C7 9.20435 7.31604 8.44141 7.87866 7.87866C8.44128 7.31616 9.20435 7 10 7Z" fill="#899D9D" fill-opacity="1.000000" fill-rule="nonzero"/>
</svg>
